<svg width="148" height="150" viewBox="0 0 148 150" fill="none" xmlns="http://www.w3.org/2000/svg">
<path d="M136.243 89.8585L146.346 92.857L144.389 99.4521L142.903 99.0115L144.312 94.2631L141.541 93.4413L140.261 97.7561L138.817 97.3279L140.098 93.0117L137.182 92.1471L135.773 96.8956L134.287 96.455L136.244 89.8599L136.243 89.8585Z" fill="#D0EDD6"/>
<path d="M133.374 98.9894L136.694 104.304L142.844 103.611L141.865 105.596L137.526 106.09L139.861 109.659L138.903 111.604L135.609 106.303L129.418 107.01L130.397 105.025L134.791 104.524L132.415 100.934L133.374 98.9894Z" fill="#D0EDD6"/>
<path d="M127.859 109.423L136.373 115.634L134.074 118.784C133.577 119.465 133.052 119.946 132.5 120.226C131.947 120.507 131.392 120.612 130.836 120.54C130.279 120.47 129.753 120.253 129.258 119.892C128.787 119.55 128.434 119.128 128.193 118.631C127.954 118.134 127.877 117.575 127.964 116.954C128.05 116.334 128.348 115.675 128.856 114.978L130.019 113.384L126.724 110.979L127.859 109.423ZM131.284 114.307L130.193 115.803C129.797 116.345 129.631 116.825 129.696 117.238C129.761 117.651 130 118.008 130.413 118.311C130.834 118.619 131.253 118.74 131.666 118.675C132.079 118.61 132.485 118.307 132.881 117.764L133.972 116.268L131.284 114.307Z" fill="#D0EDD6"/>
<path d="M121.4 117.753L128.822 125.233L127.455 126.591L121.093 120.18L117.78 123.467L116.719 122.398L121.4 117.753Z" fill="#D0EDD6"/>
<path d="M111.019 126.577C111.879 125.968 112.764 125.624 113.673 125.546C114.583 125.468 115.456 125.633 116.293 126.044C117.13 126.453 117.859 127.096 118.48 127.973C119.1 128.85 119.464 129.751 119.572 130.676C119.68 131.602 119.546 132.48 119.17 133.313C118.795 134.144 118.176 134.865 117.315 135.474C116.463 136.078 115.581 136.419 114.666 136.501C113.752 136.582 112.879 136.416 112.046 136.003C111.213 135.59 110.487 134.947 109.865 134.07C109.245 133.193 108.879 132.293 108.766 131.371C108.654 130.448 108.788 129.568 109.168 128.734C109.548 127.899 110.165 127.18 111.016 126.577H111.019ZM112.019 127.99C111.199 128.57 110.737 129.302 110.633 130.189C110.528 131.074 110.81 131.988 111.477 132.93C112.144 133.872 112.912 134.441 113.782 134.637C114.652 134.833 115.498 134.64 116.317 134.061C117.136 133.481 117.6 132.748 117.709 131.858C117.818 130.97 117.539 130.055 116.872 129.113C116.205 128.171 115.434 127.603 114.56 127.411C113.686 127.219 112.839 127.411 112.02 127.993L112.019 127.99Z" fill="#D0EDD6"/>
<path d="M104.107 131.154L108.47 140.748L104.948 142.35C104.18 142.699 103.489 142.857 102.872 142.822C102.256 142.788 101.723 142.605 101.275 142.275C100.826 141.944 100.481 141.509 100.235 140.97C99.9686 140.386 99.8788 139.781 99.9645 139.158C100.05 138.535 100.368 137.966 100.916 137.451L97.1027 134.339L99.1178 133.423L102.619 136.396L104.072 135.736L102.352 131.952L104.107 131.154ZM104.659 137.023L103 137.777C102.416 138.042 102.05 138.379 101.905 138.788C101.76 139.195 101.793 139.633 102.004 140.099C102.212 140.556 102.513 140.86 102.908 141.012C103.301 141.164 103.8 141.101 104.404 140.828L106.049 140.079L104.659 137.023Z" fill="#D0EDD6"/>
<path d="M94.1819 135.324L96.9014 145.506L90.2538 147.281L89.8533 145.782L94.639 144.504L93.8932 141.712L89.5439 142.873L89.1558 141.419L93.5051 140.257L92.7206 137.32L87.9348 138.597L87.5343 137.099L94.1819 135.324Z" fill="#D0EDD6"/>
<path d="M74.314 138.14C75.3678 138.157 76.285 138.403 77.0653 138.878C77.8457 139.351 78.452 140.002 78.8857 140.827C79.3194 141.651 79.5266 142.601 79.51 143.674C79.492 144.748 79.2545 145.69 78.7945 146.5C78.3346 147.311 77.7076 147.941 76.912 148.39C76.1164 148.839 75.1924 149.054 74.1386 149.038C73.0944 149.021 72.1801 148.775 71.3956 148.3C70.6111 147.825 70.0034 147.176 69.5752 146.351C69.1471 145.527 68.9413 144.576 68.9592 143.503C68.9772 142.429 69.2133 141.487 69.6678 140.676C70.1222 139.865 70.7506 139.235 71.5503 138.787C72.35 138.338 73.2726 138.122 74.3168 138.139L74.314 138.14ZM74.2864 139.871C73.2837 139.854 72.4771 140.173 71.8693 140.825C71.2616 141.478 70.9481 142.382 70.9301 143.535C70.9108 144.688 71.1953 145.603 71.7809 146.274C72.3679 146.946 73.1621 147.29 74.1662 147.306C75.1703 147.322 75.9783 147.003 76.5902 146.351C77.202 145.699 77.5183 144.795 77.5377 143.641C77.557 142.487 77.2697 141.574 76.6786 140.902C76.0874 140.23 75.2905 139.886 74.2864 139.869V139.871Z" fill="#D0EDD6"/>
<path d="M62.1065 136.908C62.8648 137.06 63.5181 137.349 64.0678 137.771C64.6175 138.194 65.0111 138.746 65.2473 139.429C65.4835 140.111 65.5084 140.919 65.3205 141.854L64.0374 148.23L62.148 147.85L63.4338 141.459C63.5968 140.652 63.5222 140.013 63.2129 139.541C62.9035 139.068 62.4049 138.764 61.7157 138.625C61.0361 138.488 60.4616 138.578 59.9878 138.891C59.5155 139.206 59.1978 139.766 59.0348 140.574L57.7489 146.964L55.8595 146.585L57.1426 140.209C57.3304 139.274 57.673 138.539 58.1702 138.005C58.6674 137.47 59.2572 137.115 59.9422 136.941C60.6273 136.767 61.3483 136.756 62.1065 136.908Z" fill="#D0EDD6"/>
<path d="M54.7481 135.263L50.8766 145.064L47.2787 143.643C46.4942 143.333 45.9003 142.945 45.497 142.478C45.0937 142.011 44.8547 141.502 44.7815 140.949C44.7083 140.397 44.7815 139.846 44.9984 139.295C45.2345 138.697 45.6061 138.213 46.1144 137.842C46.6226 137.47 47.2524 137.304 48.0038 137.342L47.5936 132.437L49.6515 133.251L49.9457 137.835L51.4305 138.42L52.9567 134.556L54.7494 135.264L54.7481 135.263ZM50.9098 139.735L49.2151 139.067C48.6184 138.831 48.1212 138.802 47.7276 138.981C47.3339 139.159 47.0425 139.488 46.8533 139.963C46.6696 140.43 46.6599 140.858 46.8243 141.246C46.9886 141.636 47.3795 141.951 47.9955 142.195L49.6764 142.858L50.9098 139.735Z" fill="#D0EDD6"/>
<path d="M38.66 127.336L34.2761 137.315L32.6629 136.031L36.4017 128.289L29.4365 133.462L27.7763 132.14L31.3025 124.229L24.5955 129.608L22.9698 128.314L31.7707 121.85L33.5607 123.276L30.3315 130.693L36.8824 125.921L38.6613 127.336H38.66Z" fill="#D0EDD6"/>
<path d="M25.2044 114.345C25.8618 115.169 26.2554 116.033 26.3853 116.936C26.5165 117.84 26.4005 118.722 26.04 119.581C25.6795 120.44 25.0787 121.206 24.2389 121.875C23.3992 122.545 22.5207 122.961 21.6023 123.121C20.6852 123.283 19.7998 123.199 18.9476 122.871C18.0955 122.544 17.3413 121.968 16.6839 121.143C16.0334 120.327 15.6411 119.465 15.5071 118.558C15.3732 117.65 15.4892 116.769 15.8524 115.913C16.2171 115.058 16.8179 114.296 17.6576 113.626C18.4974 112.956 19.3744 112.539 20.2888 112.373C21.2031 112.209 22.0884 112.292 22.9434 112.623C23.7983 112.955 24.5524 113.529 25.203 114.344L25.2044 114.345ZM23.8508 115.425C23.2251 114.641 22.4669 114.222 21.576 114.169C20.6865 114.115 19.7902 114.448 18.8869 115.169C17.985 115.888 17.4615 116.688 17.3151 117.568C17.1701 118.447 17.4104 119.28 18.0361 120.065C18.6617 120.849 19.4214 121.271 20.315 121.329C21.2086 121.387 22.1064 121.055 23.0083 120.335C23.9102 119.616 24.4323 118.813 24.5745 117.929C24.7168 117.046 24.4751 116.211 23.8494 115.427L23.8508 115.425Z" fill="#D0EDD6"/>
<path d="M20.235 107.707L10.9107 112.618L9.10828 109.194C8.71603 108.448 8.51852 107.767 8.51576 107.149C8.51438 106.532 8.66492 105.991 8.97016 105.524C9.2754 105.057 9.68837 104.685 10.2132 104.411C10.7823 104.111 11.3789 103.987 12.0074 104.036C12.6344 104.086 13.2214 104.371 13.7656 104.889L16.6522 100.902L17.6826 102.861L14.9175 106.528L15.6606 107.94L19.3372 106.003L20.235 107.707ZM14.4078 108.597L13.5584 106.985C13.2587 106.417 12.9024 106.072 12.4866 105.951C12.0709 105.829 11.6372 105.887 11.1842 106.126C10.7408 106.359 10.4535 106.679 10.3251 107.08C10.1966 107.482 10.2864 107.977 10.5958 108.562L11.4369 110.16L14.4078 108.596V108.597Z" fill="#D0EDD6"/>
<path d="M15.4817 98.0709L5.45159 101.306L4.86045 99.4715L8.91557 98.1635L3.66436 95.7603L2.93372 93.4965L8.10897 95.908L12.9306 90.161L13.6558 92.4109L9.93764 96.774L11.2939 97.3969L14.8905 96.2367L15.4817 98.0709Z" fill="#D0EDD6"/>
<path d="M12.9335 60.1536L2.8302 57.1551L4.78732 50.56L6.27346 51.0006L4.86467 55.749L7.6353 56.5708L8.91564 52.2561L10.359 52.6842L9.07862 57.0004L11.9943 57.865L13.4031 53.1165L14.8892 53.5571L12.9321 60.1522L12.9335 60.1536Z" fill="#D0EDD6"/>
<path d="M15.8028 51.0228L12.4825 45.7081L6.33215 46.4014L7.3114 44.4167L11.651 43.9222L9.31548 40.3532L10.274 38.4086L13.5681 43.7095L19.7585 43.0023L18.7793 44.9871L14.3858 45.4884L16.7614 49.0781L15.8028 51.0228Z" fill="#D0EDD6"/>
<path d="M21.3176 40.5908L12.8041 34.3797L15.1023 31.2293C15.5996 30.5483 16.1244 30.0677 16.6769 29.7873C17.2294 29.5069 17.7846 29.402 18.3412 29.4738C18.8978 29.5442 19.424 29.7611 19.9185 30.1216C20.3895 30.4641 20.7431 30.8853 20.9834 31.3826C21.2223 31.8798 21.2997 32.4392 21.2127 33.0593C21.127 33.6795 20.8287 34.3383 20.3204 35.0358L19.1575 36.6296L22.4529 39.0343L21.3176 40.5908ZM17.8923 35.707L18.9834 34.2112C19.3798 33.6684 19.5456 33.1891 19.4807 32.7762C19.4157 32.3632 19.1768 32.0055 18.7638 31.703C18.3426 31.395 17.9241 31.2735 17.5111 31.3384C17.0981 31.4033 16.6921 31.7071 16.2957 32.2499L15.2046 33.7458L17.8923 35.707Z" fill="#D0EDD6"/>
<path d="M27.7773 32.2596L20.3549 24.7792L21.7222 23.4215L28.0839 29.8329L31.3973 26.5457L32.4581 27.6148L27.7773 32.2596Z" fill="#D0EDD6"/>
<path d="M38.158 23.4366C37.2975 24.0457 36.4122 24.3896 35.5034 24.467C34.5932 24.5457 33.7203 24.38 32.8833 23.9698C32.0463 23.5609 31.317 22.9173 30.6969 22.0403C30.0767 21.1632 29.7121 20.2627 29.6044 19.3373C29.4966 18.4119 29.6306 17.5335 30.0063 16.7007C30.382 15.8692 31.0007 15.1482 31.8612 14.5391C32.7134 13.9355 33.596 13.5944 34.5103 13.5129C35.4246 13.4314 36.2975 13.5972 37.1304 14.0101C37.9632 14.4231 38.6897 15.0667 39.3112 15.9438C39.9314 16.8208 40.2974 17.72 40.4107 18.6426C40.5225 19.5652 40.3886 20.445 40.0087 21.2792C39.6289 22.1148 39.0115 22.8331 38.1607 23.4366H38.158ZM37.158 22.0237C37.977 21.4436 38.4397 20.7116 38.5433 19.8249C38.6483 18.9395 38.3665 18.0252 37.6994 17.0832C37.0323 16.1413 36.2644 15.5722 35.3942 15.3761C34.5241 15.18 33.6788 15.3733 32.8598 15.9521C32.0408 16.5321 31.5767 17.2656 31.4676 18.155C31.3585 19.0431 31.6375 19.9588 32.3046 20.9008C32.9717 21.8428 33.7424 22.4104 34.6166 22.6024C35.4909 22.7944 36.3376 22.6024 37.1566 22.0209L37.158 22.0237Z" fill="#D0EDD6"/>
<path d="M45.0694 18.8595L40.7063 9.2659L44.2283 7.66374C44.9962 7.3143 45.6868 7.15685 46.3042 7.19138C46.9202 7.22591 47.4533 7.40822 47.9008 7.73832C48.3497 8.0698 48.695 8.50487 48.9408 9.04353C49.206 9.62777 49.2972 10.2327 49.2116 10.8556C49.1259 11.4799 48.8083 12.0476 48.2599 12.5628L52.0733 15.6745L50.0582 16.5903L46.5569 13.618L45.1039 14.2782L46.8235 18.0612L45.0694 18.8595ZM44.517 12.9909L46.1757 12.2368C46.76 11.9716 47.126 11.6346 47.271 11.2258C47.416 10.8183 47.3829 10.3805 47.1716 9.91505C46.9644 9.45788 46.6633 9.15402 46.2683 9.0021C45.8746 8.85017 45.376 8.91232 44.7725 9.18579L43.1275 9.93439L44.517 12.9909Z" fill="#D0EDD6"/>
<path d="M54.9943 14.6882L52.2748 4.50621L58.9224 2.7314L59.3229 4.22997L54.5371 5.50756L55.283 8.30029L59.6323 7.13872L60.0204 8.5931L55.6711 9.75466L56.4556 12.6924L61.2413 11.4148L61.6419 12.9134L54.9943 14.6882Z" fill="#D0EDD6"/>
<path d="M74.862 11.8721C73.8082 11.8555 72.8911 11.6097 72.1108 11.1345C71.3304 10.6608 70.7241 10.0103 70.2904 9.1857C69.8567 8.36114 69.6495 7.4109 69.6661 6.33773C69.684 5.26455 69.9216 4.3226 70.3815 3.51185C70.8415 2.7011 71.4685 2.07129 72.2641 1.6224C73.0596 1.17352 73.9836 0.958061 75.0375 0.974635C76.0816 0.991209 76.996 1.23706 77.7805 1.71218C78.565 2.1873 79.1727 2.83645 79.6008 3.66101C80.029 4.48557 80.2348 5.43582 80.2169 6.50899C80.1989 7.58354 79.9627 8.5255 79.5083 9.33625C79.0539 10.147 78.4255 10.7768 77.6258 11.2257C76.8261 11.6746 75.9035 11.89 74.8593 11.8735L74.862 11.8721ZM74.8897 10.1415C75.8924 10.158 76.699 9.839 77.3067 9.18708C77.9144 8.53379 78.228 7.6305 78.2459 6.47722C78.2653 5.32394 77.9807 4.40961 77.3951 3.73836C76.8081 3.06573 76.0139 2.72182 75.0098 2.70662C74.0057 2.69005 73.1977 3.0091 72.5859 3.66101C71.974 4.31293 71.6577 5.2176 71.6384 6.37087C71.6191 7.52553 71.9063 8.43849 72.4975 9.10974C73.0886 9.78237 73.8856 10.1263 74.8897 10.1429V10.1415Z" fill="#D0EDD6"/>
<path d="M87.0701 13.1053C86.3118 12.9533 85.6585 12.6647 85.1088 12.242C84.5591 11.8194 84.1655 11.2669 83.9293 10.5846C83.6931 9.90233 83.6683 9.09435 83.8561 8.15929L85.1392 1.78381L87.0286 2.16363L85.7428 8.55431C85.5798 9.36091 85.6544 10.0004 85.9638 10.4728C86.2732 10.9451 86.7718 11.249 87.461 11.3885C88.1405 11.5252 88.7151 11.4354 89.1888 11.1219C89.6612 10.807 89.9788 10.2476 90.1418 9.43964L91.4277 3.04896L93.3171 3.42878L92.034 9.80427C91.8462 10.7393 91.5037 11.4741 91.0064 12.0086C90.5092 12.5431 89.9194 12.8981 89.2344 13.0721C88.5493 13.2461 87.8284 13.2572 87.0701 13.1053Z" fill="#D0EDD6"/>
<path d="M94.4283 14.749L98.2997 4.94816L101.898 6.36938C102.682 6.67877 103.276 7.06688 103.679 7.53509C104.083 8.00193 104.322 8.51158 104.395 9.06405C104.468 9.61652 104.395 10.1676 104.178 10.7187C103.942 11.3167 103.57 11.8002 103.062 12.1717C102.554 12.5432 101.924 12.7103 101.173 12.6717L101.583 17.5762L99.5248 16.7627L99.2306 12.1786L97.7458 11.593L96.2196 15.4575L94.4269 14.749H94.4283ZM98.2665 10.2767L99.9612 10.9452C100.558 11.1814 101.055 11.2104 101.449 11.0308C101.842 10.8527 102.134 10.5239 102.323 10.0488C102.507 9.58199 102.516 9.15383 102.352 8.76572C102.188 8.37761 101.797 8.06132 101.181 7.81685L99.4999 7.15389L98.2665 10.2767Z" fill="#D0EDD6"/>
<path d="M110.516 22.6769L114.9 12.698L116.513 13.9825L112.774 21.7239L119.74 16.5514L121.4 17.8732L117.874 25.7846L124.581 20.4049L126.206 21.6991L117.406 28.1629L115.616 26.7376L118.845 19.3207L112.294 24.0926L110.515 22.6769H110.516Z" fill="#D0EDD6"/>
<path d="M123.972 35.6669C123.314 34.8437 122.921 33.9791 122.791 33.0758C122.659 32.1725 122.775 31.2899 123.136 30.4309C123.496 29.5718 124.097 28.8066 124.937 28.1367C125.777 27.4669 126.655 27.0511 127.574 26.8909C128.491 26.7293 129.376 26.8136 130.228 27.1409C131.08 27.4682 131.835 28.0442 132.492 28.8688C133.143 29.685 133.535 30.5469 133.669 31.4543C133.803 32.3617 133.687 33.2429 133.324 34.0992C132.959 34.9542 132.358 35.7166 131.518 36.3865C130.679 37.0563 129.802 37.4735 128.887 37.6392C127.973 37.8036 127.088 37.7207 126.233 37.3892C125.378 37.0577 124.623 36.4832 123.973 35.6683L123.972 35.6669ZM125.325 34.5868C125.951 35.3713 126.709 35.7898 127.6 35.8437C128.489 35.8975 129.386 35.5647 130.289 34.8437C131.191 34.1241 131.714 33.3244 131.861 32.4446C132.006 31.5648 131.766 30.732 131.14 29.9474C130.514 29.1629 129.755 28.7417 128.861 28.6837C127.967 28.6257 127.07 28.9571 126.168 29.6767C125.266 30.3963 124.744 31.1988 124.601 32.0827C124.459 32.9667 124.701 33.8009 125.327 34.5854L125.325 34.5868Z" fill="#D0EDD6"/>
<path d="M128.942 42.3062L138.266 37.3961L140.068 40.82C140.461 41.5659 140.658 42.2482 140.661 42.8656C140.662 43.4829 140.512 44.0244 140.206 44.4912C139.901 44.958 139.488 45.3296 138.963 45.6044C138.394 45.9041 137.798 46.0284 137.169 45.9787C136.542 45.929 135.955 45.6445 135.411 45.1265L132.524 49.1126L131.494 47.1541L134.259 43.4871L133.516 42.0755L129.839 44.0119L128.942 42.3076V42.3062ZM134.769 41.4167L135.618 43.0285C135.918 43.5962 136.274 43.9415 136.69 44.063C137.106 44.1846 137.539 44.1266 137.992 43.8876C138.436 43.6542 138.723 43.3351 138.851 42.9332C138.98 42.5313 138.89 42.0368 138.581 41.4512L137.74 39.8532L134.769 41.4181V41.4167Z" fill="#D0EDD6"/>
<path d="M133.694 51.9414L143.725 48.7067L144.316 50.5409L140.261 51.8488L145.512 54.2521L146.242 56.5158L141.067 54.1043L136.245 59.8513L135.52 57.6014L139.238 53.2383L137.882 52.6154L134.286 53.7756L133.694 51.9414Z" fill="#D0EDD6"/>
<path d="M5.22763 79.3435C7.62282 79.3435 9.56451 77.4018 9.56451 75.0066C9.56451 72.6114 7.62282 70.6697 5.22763 70.6697C2.83243 70.6697 0.890747 72.6114 0.890747 75.0066C0.890747 77.4018 2.83243 79.3435 5.22763 79.3435Z" fill="#D0EDD6"/>
<path d="M143.664 79.3435C146.059 79.3435 148.001 77.4018 148.001 75.0066C148.001 72.6114 146.059 70.6697 143.664 70.6697C141.269 70.6697 139.327 72.6114 139.327 75.0066C139.327 77.4018 141.269 79.3435 143.664 79.3435Z" fill="#D0EDD6"/>
</svg>
